<svg width="652" height="652" viewBox="0 0 652 652" fill="none" xmlns="http://www.w3.org/2000/svg">
<path fill-rule="evenodd" clip-rule="evenodd" d="M326 651C505.493 651 651 505.493 651 326C651 146.507 505.493 1 326 1C146.507 1 1 146.507 1 326C1 505.493 146.507 651 326 651ZM326.05 577.139C464.748 577.139 577.186 464.702 577.186 326.003C577.186 307.085 575.094 288.656 571.129 270.934L359.796 419.026C359.909 420.419 359.967 421.828 359.967 423.25C359.967 451.561 337.017 474.511 308.706 474.511C280.396 474.511 257.445 451.561 257.445 423.25C257.445 394.94 280.396 371.989 308.706 371.989C316.306 371.989 323.52 373.643 330.007 376.611L553.714 219.849C513.713 134.208 426.811 74.8665 326.05 74.8665C187.351 74.8665 74.9132 187.304 74.9132 326.003C74.9132 344.624 76.9398 362.771 80.7844 380.237L292.415 232.797C292.253 231.142 292.171 229.464 292.171 227.766C292.171 199.455 315.121 176.505 343.432 176.505C371.742 176.505 394.693 199.455 394.693 227.766C394.693 256.076 371.742 279.027 343.432 279.027C336.014 279.027 328.964 277.451 322.599 274.616L97.9173 431.148C137.705 517.332 224.893 577.139 326.05 577.139Z" fill="#E3E3E3" stroke="#E3E3E3" stroke-width="2"/>
</svg>
